<?xml version="1.0"?>
<svg width="1754" height="1241" xmlns="http://www.w3.org/2000/svg" xmlns:svg="http://www.w3.org/2000/svg" enable-background="new 0 0 1754 1241" version="1.1" xml:space="preserve">
 <g class="layer">
  <title>Layer 1</title>
  <path d="m465.14,461.6c1.6,-0.53 3.26,-0.6 4.93,-0.6c255.4,0 510.8,0.01 766.19,-0.13c5.11,0 6.15,1.26 6.14,6.22c-0.17,85.97 -0.12,171.93 -0.14,257.9c0,1.97 -0.25,3.95 -0.84,6.05c-0.63,-0.16 -0.82,-0.44 -1.23,-1.16c-1.14,-3.38 -0.8,-6.41 -0.8,-9.39c-0.02,-82.14 -0.01,-164.29 -0.03,-246.43c0,-10.88 0.81,-10.42 -10.24,-10.42c-250.43,-0.01 -500.85,-0.01 -751.28,-0.02c-3.33,0 -6.66,0.17 -10.47,-0.34c-1.13,-0.34 -1.69,-0.7 -2.23,-1.68z" fill="#4D4B4C" id="svg_9" opacity="1"/>
  <path d="m1240.54,729.56c0.4,0.52 0.41,0.74 0.42,1.28c-1.64,0.4 -3.3,0.57 -4.96,0.57c-256.34,0.01 -512.69,0 -769.5,-0.03c-0.56,-0.36 -0.66,-0.68 -0.46,-1.41c1.9,-1.51 3.75,-1.51 5.58,-1.57c2,-0.06 4,-0.03 6,-0.03c250.71,0 501.43,-0.01 752.15,0.02c3.46,0 7.01,-0.57 10.77,1.17z" fill="#5E5C5D" id="svg_10" opacity="1"/>
  <path d="m466.35,729.49c-0.36,0.63 -0.39,0.87 -0.37,1.49c-0.85,0.78 -1.71,0.63 -1.89,-0.37c-0.23,-1.29 -0.18,-2.64 -0.18,-3.97c0,-86.76 0,-173.52 0.01,-260.29c0,-1.64 0.22,-3.29 0.75,-5.09c0.63,0.16 0.86,0.47 1.36,0.9c1.83,2.15 1.58,4.55 1.58,6.85c0.03,84.58 0.03,169.16 0,253.75c0,2.15 0.13,4.34 -1.26,6.73z" fill="#868586" id="svg_13" opacity="1"/>
  <path d="m466.49,729.93c-0.52,-1.22 -0.62,-2.38 -0.62,-3.54c-0.01,-86.42 -0.01,-172.83 0,-259.24c0,-1.33 0.13,-2.66 0.32,-4.42c3.11,-0.45 6.11,-0.48 9.11,-0.48c253.09,0 506.18,0.01 759.27,-0.11c5.04,0 6.59,1.01 6.58,6.38c-0.19,86.81 -0.14,173.62 -0.18,260.89c-1.03,0.5 -2.03,0.59 -3.03,0.59c-256.99,0 -513.99,-0.01 -771.45,-0.07z" fill="#FEFDFE" id="svg_132" opacity="1"/>
  <path d="m946.67,656.05c-6.77,-0.09 -14.12,1.79 -19.1,-0.82c-4.99,-2.62 -7.65,-9.71 -11.27,-14.89c-3.91,-5.59 -7.74,-11.23 -11.66,-16.93c-2.19,0.66 -2.74,2.76 -3.81,4.28c-5.83,8.3 -11.67,16.61 -17.3,25.06c-1.67,2.5 -3.49,3.47 -6.51,3.37c-6.74,-0.23 -13.5,-0.07 -21.12,-0.07c7.48,-10.82 14.45,-20.91 21.41,-30.99c2.84,-4.1 5.69,-8.21 8.52,-12.32c4.6,-6.67 4.64,-9.64 0.15,-16.29c-17.86,-26.49 -35.74,-52.97 -53.57,-79.47c-0.97,-1.44 -2.49,-2.69 -2.46,-5.25c7.51,0 14.94,0.04 22.36,-0.02c2.61,-0.03 3.21,2.14 4.25,3.69c14.89,22.07 29.72,44.18 44.57,66.28c0.91,1.35 1.89,2.67 3.14,4.42c7.11,-10.29 14.04,-20.17 20.77,-30.19c1.83,-2.73 3.72,-4.13 7.22,-3.95c6.59,0.33 13.19,0.1 19.88,0.1c-0.07,2.26 -1.45,3.38 -2.35,4.69c-9.15,13.3 -18.36,26.55 -27.51,39.85c-4.39,6.39 -4.37,9.46 0.06,15.89c9.81,14.23 19.67,28.43 29.56,42.72c-1.53,1.53 -3.26,0.52 -5.23,0.84z" fill="#6E099B" id="svg_212" opacity="1"/>
  <path d="m779.59,552.07c3.35,0.95 2.03,3.39 2.04,5.1c0.11,18.33 0.54,36.67 -0.08,54.98c-0.47,13.85 9.98,24.32 23.31,23.01c3.3,-0.32 6.66,-0.04 9.99,-0.05c14.36,-0.05 22.43,-8.17 22.46,-22.67c0.03,-19.49 0.01,-38.98 0.01,-58.4c0.79,-0.52 1.28,-0.23 1.71,0.38c5.96,8.42 11.9,16.86 17.91,25.25c1.05,1.47 1.22,3.01 1.22,4.7c-0.03,10.5 0.09,21 -0.06,31.49c-0.31,21.87 -18.41,39.98 -40.27,40.12c-7.97,0.05 -15.98,0.83 -23.91,-0.79c-18.72,-3.82 -32.79,-20.28 -33,-39.25c-0.21,-19.99 0,-39.99 -0.12,-59.98c-0.02,-2.96 0.63,-4.16 3.84,-3.98c4.81,0.28 9.66,0.07 14.95,0.09z" fill="#6F0B9C" id="svg_213" opacity="1"/>
  <path d="m994.06,573.02c-3.64,0.16 -6.89,-0.12 -9.92,0.55c-9.29,2.03 -15.78,10.15 -16,19.78c-0.17,6.99 -0.13,13.99 -0.02,20.98c0.2,12 8.89,20.66 20.95,20.76c13.48,0.11 26.97,0.14 40.46,-0.05c3.42,-0.05 4.85,0.77 4.48,4.39c-0.57,5.4 2.31,12.67 -1.13,15.74c-3.01,2.69 -10.12,0.83 -15.43,0.86c-9.15,0.06 -18.31,0.04 -27.47,0.01c-22.97,-0.06 -40.38,-15.53 -42.45,-38.5c-0.88,-9.74 -0.95,-19.64 0.28,-29.41c2.49,-19.82 19.28,-35.4 39.23,-35.97c14.48,-0.41 28.98,-0.01 43.46,-0.17c3.04,-0.03 3.61,1.17 3.51,3.82c-0.17,4.49 -0.27,9 0.02,13.48c0.21,3.27 -1.12,3.82 -4.02,3.79c-11.82,-0.14 -23.64,-0.06 -35.95,-0.06z" fill="#6E0A9B" id="svg_214" opacity="1"/>
  <path d="m694.72,633.5c1.5,2.41 3.52,1.49 5.2,1.49c18.58,0.08 37.17,0.16 55.76,-0.04c3.96,-0.05 5.67,0.72 5.31,5.07c-0.42,5.11 -0.18,10.27 -0.61,15.59c-9.15,-0.51 -17.93,-0.06 -26.71,-0.1c-16.25,-0.06 -32.5,-0.08 -49.2,0.16c-7.5,-1.12 -10.28,-4.56 -10.29,-12.38c-0.03,-25.63 -0.01,-51.25 -0.01,-76.87c0,-3.66 0.13,-7.33 -0.05,-10.98c-0.13,-2.63 0.82,-3.51 3.43,-3.42c5.65,0.2 11.31,0.15 17.13,0.6c-0.48,2 -0.18,3.67 -0.18,5.32c0.01,25.04 -0.08,50.07 0.22,75.56z" fill="#6F099C" id="svg_215" opacity="1"/>
  <path d="m938.01,689.05c-4.01,0.59 -5.65,-0.49 -5.21,-4.46c0.38,-3.45 0.24,-6.98 0.02,-10.46c-0.17,-2.72 0.89,-3.5 3.43,-3.29c2.32,0.19 4.66,-0.05 6.98,0.12c5.26,0.39 6.65,2.4 4.81,7.4c-0.48,1.3 0.06,1.56 0.55,2.34c2.66,4.2 1.32,7.29 -3.63,8.12c-2.11,0.35 -4.31,0.17 -6.95,0.23z" fill="#6D1594" id="svg_216" opacity="1"/>
  <path d="m745.07,682.89c-0.63,2.31 1.56,5.03 -1.38,6.06c-2.81,0.97 -4.07,-1.5 -5.55,-3.23c-1.47,-1.73 -2.94,-3.46 -5.2,-6.12c0,3 -0.08,4.91 0.03,6.8c0.1,1.87 -0.51,2.68 -2.51,2.69c-1.91,0 -2.66,-0.58 -2.61,-2.55c0.11,-4.16 -0.02,-8.32 0.07,-12.47c0.02,-1.14 -0.76,-2.89 1.35,-3.13c1.49,-0.17 2.91,-0.15 4.02,1.3c1.89,2.45 3.96,4.76 6.71,8.03c0,-3 0.08,-4.92 -0.03,-6.82c-0.11,-1.92 0.62,-2.61 2.56,-2.62c1.96,-0.01 2.64,0.68 2.57,2.6c-0.11,2.99 -0.03,5.99 -0.03,9.46z" fill="#6A1192" id="svg_217" opacity="1"/>
  <path d="m894.09,671.3c5.65,2.92 7.3,5.97 6.11,10.85c-1.24,5.08 -5.03,6.64 -9.69,6.87c-8.63,0.43 -8.63,0.41 -8.63,-7.92c0,-10.74 0,-10.74 10.83,-10.09c0.33,0.02 0.66,0.1 1.38,0.29z" fill="#6A1192" id="svg_218" opacity="1"/>
  <path d="m918.19,687.46c-8.09,3.65 -15.36,0.69 -16.23,-6.24c-0.57,-4.5 1.99,-8.67 6.21,-10.15c4.64,-1.62 9.89,-0.05 12.39,3.71c2.61,3.94 1.92,8.13 -2.37,12.68z" fill="#6D1594" id="svg_219" opacity="1"/>
  <path d="m798.31,688.91c-8.04,0.66 -12.6,-2.06 -13.33,-7.62c-0.65,-5.03 2.23,-9.22 7.19,-10.43c5.46,-1.34 10.54,1.06 12.33,5.82c1.83,4.85 -0.12,8.93 -6.19,12.23z" fill="#6D1594" id="svg_220" opacity="1"/>
  <path d="m763.13,671.71c5.09,4.13 6.25,8.3 3.82,12.67c-2.3,4.14 -7.62,6.03 -12.56,4.47c-4.37,-1.38 -7.11,-5.88 -6.39,-10.51c0.97,-6.27 6.98,-9.04 15.13,-6.63z" fill="#6D1594" id="svg_221" opacity="1"/>
  <path d="m968.84,688.12c-2.92,1.67 -5.28,1.03 -6.84,-2.06c-0.52,-1.03 -1.2,-2.01 -2.62,-1.91c-1.92,0.12 -1.37,1.64 -1.31,2.6c0.13,2.23 -1.16,2.24 -2.8,2.33c-2.12,0.1 -2.46,-0.97 -2.41,-2.72c0.08,-2.81 -0.25,-5.67 0.11,-8.44c0.31,-2.34 -1.91,-6.24 1.5,-6.75c4.34,-0.65 9.44,-1.76 13.16,2.19c2.02,2.13 2.45,5.28 0.57,7.29c-2.75,2.93 -1.37,4.81 0.64,7.47z" fill="#6A1192" id="svg_222" opacity="1"/>
  <path d="m807.4,683.14c-1.06,-4.61 -0.33,-8.4 3.5,-10.9c3.6,-2.35 7.51,-2.47 11.35,-0.5c1,0.51 3.01,0.84 1.79,2.69c-0.74,1.13 -1.8,2.69 -3.62,1.34c-1.16,-0.87 -2.46,-0.91 -3.79,-0.8c-2.77,0.24 -4.24,1.98 -4.41,4.55c-0.18,2.81 1.22,4.82 4.11,5.34c1.9,0.35 3.8,0.31 3.61,-2.54c-0.11,-1.6 -0.02,-2.96 2.25,-2.92c2.49,0.05 2.42,1.6 2.49,3.37c0.23,5.71 -6.03,8.58 -12.4,5.63c-2.2,-1.02 -3.8,-2.62 -4.88,-5.26z" fill="#701A97" id="svg_223" opacity="1"/>
  <path d="m969.41,688.65c-0.42,-0.08 -0.45,-0.2 -0.45,-0.27c3.64,-4.02 4.7,-9.29 7,-13.94c0.96,-1.93 1.52,-3.76 4.44,-3.68c2.75,0.08 3.15,1.86 3.93,3.64c2.05,4.66 4.11,9.32 6.3,14.28c-2.7,0.35 -4.41,0.88 -6.3,-1.68c-2.05,-2.78 -6.17,-2.64 -8.13,-0.2c-2.06,2.57 -3.92,2.37 -6.79,1.85z" fill="#6D1594" id="svg_224" opacity="1"/>
  <path d="m855.12,687.55c-1.59,2.11 -3.39,2.1 -5.08,0.46c-3.64,-3.52 -5.91,-3.53 -9.88,0.17c-1.61,1.5 -3.3,0.78 -5.41,0.52c2.37,-5.38 4.72,-10.47 6.86,-15.66c0.7,-1.67 1.67,-2.16 3.37,-2.21c1.87,-0.05 3.08,0.41 3.85,2.27c1.98,4.74 4.11,9.41 6.29,14.45z" fill="#6D1594" id="svg_225" opacity="1"/>
  <path d="m699.81,689.04c-8.93,0 -8.93,0 -8.93,-8.59c0,-9.69 0,-9.69 10,-9.57c0.99,0.02 1.99,-0.01 2.98,0.09c1.07,0.1 1.17,0.93 1.17,1.8c0,1.06 -0.14,2.04 -1.5,2.07c-1.83,0.05 -3.65,0.04 -5.48,0.08c-1.02,0.02 -2.04,0.07 -2.01,1.51c0.04,1.41 1.1,1.26 2.07,1.52c1.97,0.52 5.49,-1.56 5.69,1.61c0.27,4.27 -3.71,1.49 -5.67,2.22c-0.9,0.34 -2,0.09 -2.09,1.51c-0.11,1.82 1.18,1.66 2.33,1.68c1.33,0.02 2.66,0 3.98,0.01c1.47,0.02 3.07,-0.32 3.05,2.08c-0.03,2.46 -1.74,1.9 -3.14,1.97c-0.66,0.04 -1.33,0.01 -2.45,0.01z" fill="#6A1192" id="svg_226" opacity="1"/>
  <path d="m996.89,670.83c2.89,-0.8 5.33,-0.21 7.72,0.44c0.99,0.27 1.86,0.94 1.32,2.2c-0.43,0.99 -0.61,2.19 -2.34,1.87c-2.1,-0.4 -5.4,-2.05 -5.98,0.65c-0.48,2.22 3.35,1.7 5.21,2.49c2.46,1.06 4.47,2.24 4.29,5.32c-0.18,3.2 -2.28,4.69 -5.08,5.22c-2.79,0.54 -5.62,0.46 -8.33,-0.58c-1.16,-0.44 -2.21,-0.99 -1.56,-2.51c0.53,-1.24 1.12,-2.54 2.9,-1.58c0.29,0.15 0.6,0.34 0.91,0.38c1.93,0.25 5.02,1.32 5.46,-0.34c0.7,-2.58 -2.57,-2.05 -4.23,-2.68c-2.51,-0.97 -5.13,-1.76 -5.25,-5.14c-0.11,-3.2 1.8,-4.79 4.96,-5.74z" fill="#701A97" id="svg_227" opacity="1"/>
  <path d="m861.61,681.46c-3.27,-0.98 -5.07,-2.71 -4.62,-5.91c0.43,-3.1 2.72,-4.25 5.52,-4.88c2.38,-0.53 4.62,-0.01 6.87,0.51c1.21,0.27 2.16,1.04 1.47,2.52c-0.47,1.02 -0.85,2.27 -2.5,1.54c-0.59,-0.26 -1.28,-0.33 -1.94,-0.4c-1.44,-0.15 -3.54,-0.74 -3.91,0.87c-0.44,1.88 1.81,1.84 3.15,2.22c2.86,0.82 6,1.28 6.45,5.12c0.31,2.71 -1.08,4.56 -3.43,5.44c-3.72,1.4 -7.52,1.19 -11.08,-0.6c-1.1,-0.55 -0.61,-1.7 -0.13,-2.62c0.51,-1 1.16,-1.55 2.36,-1.04c2.29,0.96 4.61,1.35 7.2,0.27c-1,-2.74 -3.38,-2.17 -5.41,-3.04z" fill="#701A97" id="svg_228" opacity="1"/>
  <path d="m722.44,671.38c1.32,1.06 3.57,1.37 2.2,3.4c-0.78,1.17 -1.82,2.13 -3.68,0.96c-2.52,-1.57 -5.12,-1.29 -6.95,1.33c-1.4,2 -1.22,4.19 0.25,6.02c1.8,2.24 4.27,2.67 6.62,1.05c2.09,-1.44 3.17,-0.11 3.91,1.23c0.93,1.71 -0.86,2.31 -1.95,2.78c-4.25,1.83 -8.47,1.83 -12.04,-1.46c-3.11,-2.87 -3.76,-6.56 -2.14,-10.46c1.83,-4.42 5.55,-5.87 10.05,-5.71c1.14,0.04 2.27,0.44 3.73,0.86z" fill="#6D1594" id="svg_229" opacity="1"/>
  <path d="m688.68,671.21c0.58,1.86 1.21,3.96 -1.5,3.7c-3.32,-0.32 -3.37,1.54 -3.27,3.93c0.11,2.65 -0.06,5.31 0.04,7.97c0.08,2.26 -1.34,2.18 -2.92,2.25c-1.78,0.08 -2.34,-0.71 -2.27,-2.37c0.08,-1.82 0.06,-3.65 0,-5.47c-0.1,-3.03 1.39,-7.13 -4.38,-6.37c-1.36,0.18 -1.29,-1.17 -1.34,-2.16c-0.08,-1.69 1.04,-1.81 2.28,-1.8c4.32,0.03 8.63,0.05 13.36,0.32z" fill="#6A1192" id="svg_230" opacity="1"/>
  <path d="m1024.22,684.86c2.28,0.08 4.11,0.07 5.93,0.13c1.29,0.04 1.56,0.92 1.57,2.04c0,1.15 -0.37,1.95 -1.64,1.96c-3.48,0.03 -6.97,0.03 -10.45,0.03c-2.11,0 -1.72,-1.59 -1.73,-2.84c-0.03,-4.15 0.07,-8.31 -0.05,-12.45c-0.06,-2.1 0.54,-2.95 2.78,-2.9c2.13,0.04 2.3,1.07 2.42,2.77c0.27,3.74 -0.93,7.57 1.17,11.26z" fill="#6A1192" id="svg_231" opacity="1"/>
  <path d="m784.7,687.01c-4,3.89 -8.68,1.41 -13.01,1.79c-1.06,0.1 -1.27,-17.5 -0.07,-17.66c1.6,-0.21 4.25,-1.62 4.38,1.92c0.04,1.16 0.01,2.32 0.02,3.49c0.03,2.49 -0.72,5.4 0.31,7.36c1.29,2.43 4.54,0.55 6.87,1.06c0.93,0.21 1.48,0.62 1.5,2.04z" fill="#6A1192" id="svg_232" opacity="1"/>
  <path d="m827.88,680.97c0,-2.63 0.03,-4.78 0,-6.93c-0.03,-1.72 -0.16,-3.23 2.42,-3.22c2.27,0.01 2.8,0.89 2.74,2.94c-0.11,4.13 -0.12,8.27 0,12.4c0.06,2.03 -0.42,2.94 -2.71,2.95c-2.56,0 -2.5,-1.45 -2.45,-3.19c0.04,-1.49 0,-2.97 0,-4.95z" fill="#6A1192" id="svg_233" opacity="1"/>
  <path d="m1013.97,687.68c-3.1,2.08 -5.29,2.28 -5.12,-2.27c0.15,-3.64 0.01,-7.28 0.04,-10.93c0.02,-1.71 -0.58,-3.63 2.46,-3.67c2.89,-0.04 2.7,1.59 2.68,3.49c-0.04,4.3 -0.02,8.61 -0.06,13.38z" fill="#6A1192" id="svg_234" opacity="1"/>
  <path d="m694.97,633.49c-1.27,-0.56 -0.96,-1.96 -0.96,-3.25c-0.01,-24.88 -0.01,-49.76 0.01,-74.64c0,-0.65 0.19,-1.3 0.56,-2.27c0.33,26.36 0.4,53.03 0.39,80.16z" fill="#611483" id="svg_235" opacity="1"/>
  <path d="m684.47,655.9c0.13,-0.34 0.72,-0.84 1.31,-0.84c24.52,0.05 49.04,0.14 73.89,0.48c-24.69,0.32 -49.72,0.38 -75.2,0.36z" fill="#611483" id="svg_236" opacity="1"/>
  <path d="m944.7,683.05c-0.71,2.84 -2.81,1.97 -4.48,2.13c-1.25,0.11 -2.29,-0.14 -2.23,-1.81c0.06,-1.68 1.2,-1.72 2.38,-1.7c1.47,0.02 2.99,-0.18 4.33,1.38z" fill="#F8E6FB" id="svg_254" opacity="1"/>
  <path d="m943.77,675.88c-0.25,1.83 -1.32,2.2 -2.54,2.08c-1.26,-0.12 -3.26,0.84 -3.2,-1.72c0.04,-2.07 1.67,-1.66 2.88,-1.58c0.94,0.06 1.85,0.52 2.86,1.22z" fill="#FAEAFD" id="svg_255" opacity="1"/>
  <path d="m888.88,674.99c5.37,0.66 7.2,2.74 6.11,6.5c-0.86,2.97 -3.25,3.4 -5.87,3.46c-3.25,0.07 -2.17,-2.46 -2.03,-3.89c0.2,-2.03 -1.41,-4.59 1.79,-6.07z" fill="#F9F1FB" id="svg_256" opacity="1"/>
  <path d="m911.99,674.92c3.91,0.47 5.2,2.76 4.73,5.93c-0.37,2.47 -1.98,4.12 -4.74,4.12c-2.77,0 -4.38,-1.65 -4.74,-4.13c-0.45,-3.16 0.83,-5.47 4.75,-5.92z" fill="#FAEAFD" id="svg_257" opacity="1"/>
  <path d="m796.52,684.78c-3.22,0.55 -5.27,-0.54 -6.13,-3.29c-0.84,-2.69 0.02,-5.07 2.6,-6.19c2.26,-0.97 4.65,-0.64 6.02,1.8c1.76,3.14 0.86,5.67 -2.49,7.68z" fill="#FAEAFD" id="svg_258" opacity="1"/>
  <path d="m753.32,678.43c1.53,-3.58 4.06,-4.35 6.99,-2.94c2.32,1.12 3.06,3.41 2.3,5.9c-0.76,2.47 -2.51,3.95 -5.19,3.53c-3.4,-0.54 -4.52,-2.89 -4.1,-6.49z" fill="#FAEAFD" id="svg_259" opacity="1"/>
  <path d="m960.72,674.95c2.45,0.21 3.6,1.28 3.08,3.31c-0.45,1.78 -2.12,1.85 -3.66,1.84c-1.02,0 -2.13,0 -2.08,-1.42c0.05,-1.61 -0.96,-3.97 2.66,-3.73z" fill="#FAEAFD" id="svg_260" opacity="1"/>
  <path d="m981.74,679.64c0.54,2.6 -1.09,2.13 -2.32,2.13c-1.12,0.01 -1.48,-0.73 -1.01,-1.58c0.6,-1.09 0.33,-2.83 1.9,-3.13c0.28,-0.05 0.86,1.46 1.43,2.58z" fill="#F4DCF9" id="svg_261" opacity="1"/>
  <path d="m844.65,677.31c1.99,0.84 2.73,2.36 1.72,4.22c-0.2,0.38 -1.76,0.52 -2.27,0.17c-2.09,-1.43 0.39,-2.74 0.55,-4.39z" fill="#F4DCF9" id="svg_262" opacity="1"/>
 </g>
</svg>